{
  "asset": {
    "generator": "Khronos glTF Blender I/O v3.5.30",
    "version": "2.0"
  },
  "extensionsUsed": [
    "KHR_materials_specular",
    "KHR_materials_ior"
  ],
  "scene": 0,
  "scenes": [
    {
      "name": "Scene",
      "nodes": [
        0
      ]
    }
  ],
  "nodes": [
    {
      "mesh": 0,
      "name": "coastal_cliff_02_LOD0"
    }
  ],
  "materials": [
    {
      "doubleSided": true,
      "extensions": {
        "KHR_materials_specular": {
          "specularColorFactor": [
            1.253919373089141,
            1.253919373089141,
            1.253919373089141
          ]
        },
        "KHR_materials_ior": {
          "ior": 1.4500000476837158
        }
      },
      "name": "coastal_cliff_02",
      "normalTexture": {
        "index": 0
      },
      "pbrMetallicRoughness": {
        "baseColorTexture": {
          "index": 1
        },
        "metallicFactor": 0,
        "metallicRoughnessTexture": {
          "index": 2
        }
      }
    }
  ],
  "meshes": [
    {
      "name": "coastal_cliff_02_a.002",
      "primitives": [
        {
          "attributes": {
            "POSITION": 0,
            "TEXCOORD_0": 1,
            "NORMAL": 2
          },
          "indices": 3,
          "material": 0
        }
      ]
    }
  ],
  "textures": [
    {
      "sampler": 0,
      "source": 0
    },
    {
      "sampler": 0,
      "source": 1
    },
    {
      "sampler": 0,
      "source": 2
    }
  ],
  "images": [
    {
      "mimeType": "image/jpeg",
      "name": "coastal_cliff_02_nor_gl",
      "uri": "textures/coastal_cliff_02_nor_gl_4k.jpg"
    },
    {
      "mimeType": "image/jpeg",
      "name": "coastal_cliff_02_diff",
      "uri": "textures/coastal_cliff_02_diff_4k.jpg"
    },
    {
      "mimeType": "image/jpeg",
      "name": "coastal_cliff_02_rough",
      "uri": "textures/coastal_cliff_02_arm_4k.jpg"
    }
  ],
  "accessors": [
    {
      "bufferView": 0,
      "componentType": 5126,
      "count": 482925,
      "max": [
        20.412370681762695,
        9.82531452178955,
        4.1525349617004395
      ],
      "min": [
        -20.515243530273438,
        -0.2278934270143509,
        -4.495181083679199
      ],
      "type": "VEC3"
    },
    {
      "bufferView": 1,
      "componentType": 5126,
      "count": 482925,
      "type": "VEC2"
    },
    {
      "bufferView": 2,
      "componentType": 5126,
      "count": 482925,
      "type": "VEC3"
    },
    {
      "bufferView": 3,
      "componentType": 5125,
      "count": 2829852,
      "type": "SCALAR"
    }
  ],
  "bufferViews": [
    {
      "buffer": 0,
      "byteLength": 5795100,
      "byteOffset": 0,
      "target": 34962
    },
    {
      "buffer": 0,
      "byteLength": 3863400,
      "byteOffset": 5795100,
      "target": 34962
    },
    {
      "buffer": 0,
      "byteLength": 5795100,
      "byteOffset": 9658500,
      "target": 34962
    },
    {
      "buffer": 0,
      "byteLength": 11319408,
      "byteOffset": 15453600,
      "target": 34963
    }
  ],
  "samplers": [
    {
      "magFilter": 9729,
      "minFilter": 9987
    }
  ],
  "buffers": [
    {
      "byteLength": 26773008,
      "uri": "coastal_cliff_02.bin"
    }
  ]
}